<svg width="124" height="83" viewBox="0 0 124 83" fill="none" xmlns="http://www.w3.org/2000/svg">
<path d="M123.095 32.1038C122.613 29.1569 121.799 26.1931 120.666 23.2068C119.532 20.2262 118.062 17.3466 116.243 14.5568C114.431 11.7727 112.231 9.30846 109.633 7.16982C107.04 5.03679 104.015 3.31915 100.553 2.0225C97.0846 0.725842 93.1507 0.074707 88.7455 0.074707L53.7613 0.074707V1.04578C55.1867 1.04578 56.3203 1.27592 57.1677 1.72498C58.0095 2.17965 58.6548 2.81396 59.1094 3.61665C59.5583 4.43057 59.8502 5.40165 59.9848 6.53552C60.1139 7.6694 60.1813 8.94921 60.1813 10.375L60.1813 70.734C60.1813 72.6145 60.0802 74.2479 59.8894 75.6456C59.693 77.0377 59.3395 78.1884 58.8176 79.0978C58.3013 80.0071 57.5212 80.6863 56.4887 81.1354C55.4505 81.59 54.1205 81.8146 52.5043 81.8146V82.7857L88.7455 82.7857C93.1507 82.7857 97.0902 82.1401 100.553 80.8435C104.015 79.5468 107.046 77.7955 109.633 75.5951C112.225 73.3947 114.431 70.8632 116.243 68.0173C118.056 65.1657 119.532 62.1514 120.666 58.9743C121.799 55.8028 122.613 52.6089 123.095 49.4038C123.578 46.1986 123.825 43.1338 123.825 40.2205C123.825 37.7619 123.578 35.0564 123.095 32.1038ZM110.076 55.6737C109.201 60.6639 107.747 65.0815 105.704 68.9378C103.667 72.7885 100.946 75.887 97.5392 78.2165C94.1384 80.546 89.9464 81.7191 84.9575 81.7191L72.6171 81.7191L72.6171 1.14122L83.5938 1.14122C88.6501 1.14122 92.9263 2.23018 96.4224 4.4025C99.9186 6.56921 102.786 9.47124 105.02 13.0974C107.259 16.7292 108.875 20.8886 109.88 25.5868C110.884 30.2851 111.384 35.163 111.384 40.2149C111.384 45.5306 110.951 50.6836 110.07 55.6681L110.076 55.6737Z" fill="white"/>
<path d="M110.076 55.6737C110.957 50.6891 111.389 45.5362 111.389 40.2205L111.384 40.2149C111.384 35.163 110.884 30.2851 109.88 25.5868C108.875 20.8885 107.259 16.7291 105.02 13.0973C102.786 9.4712 99.9189 6.56917 96.4227 4.40246C92.9265 2.23014 88.6503 1.14117 83.5941 1.14117L61.5 1.14117L61.5 81.7191L84.9577 81.7191C89.9466 81.7191 94.1387 80.5459 97.5394 78.2164C100.946 75.8869 103.668 72.7884 105.705 68.9377C107.747 65.0815 109.201 60.6638 110.076 55.6737Z" fill="white"/>
<path d="M11.3548 52.8194C17.6258 52.8194 22.7095 47.5717 22.7095 41.0984C22.7095 34.625 17.6258 29.3773 11.3548 29.3773C5.0837 29.3773 0 34.625 0 41.0984C0 47.5717 5.0837 52.8194 11.3548 52.8194Z" fill="white"/>
<path d="M112.75 46.3441C107.329 41.6188 101.28 37.4549 94.4254 35.2669C91.11 34.2073 87.5649 33.6517 84.0871 33.7949C80.1891 33.9553 76.3641 34.9061 72.6902 36.1948C69.2459 37.4033 65.8856 38.8409 62.531 40.2843C60.6828 41.0804 58.8403 41.8823 56.9922 42.6784C57.4626 42.478 57.0538 42.6498 56.9642 42.6899C56.7345 42.7872 56.4993 42.8903 56.2697 42.9877C55.8833 43.1538 55.4968 43.3199 55.1104 43.4803C54.2591 43.8411 53.4079 44.1962 52.551 44.5513C49.1516 45.9431 45.7129 47.249 42.2014 48.3029C40.5381 48.8012 38.858 49.248 37.161 49.6203C36.3154 49.8093 35.4641 49.9754 34.6072 50.1243C34.1592 50.2045 33.7112 50.2732 33.2631 50.3419C32.7143 50.4279 33.1623 50.3591 33.2687 50.3419C32.9383 50.3878 32.6135 50.4278 32.283 50.4622C30.2557 50.6913 28.2115 50.8116 26.1786 50.72C25.6633 50.6971 25.1481 50.6627 24.6385 50.6111C24.5657 50.6054 23.72 50.4966 24.364 50.5882C24.112 50.5539 23.8544 50.5138 23.6024 50.4679C22.5943 50.2847 21.5918 50.0384 20.6229 49.7004C20.4101 49.626 20.1917 49.5458 19.9845 49.4656C19.8557 49.4141 19.206 49.2365 19.8669 49.4255C19.4749 49.3167 19.0772 49.0475 18.7188 48.8528C18.3604 48.658 17.9795 48.4232 17.6211 48.1884C17.4419 48.0681 17.2683 47.9478 17.0947 47.8218C16.8539 47.65 16.5906 47.5125 16.9827 47.7473C16.305 47.3407 15.6666 46.556 15.1625 45.9546C15.0729 45.8458 14.5801 45.3647 15.0729 45.863C14.9049 45.6969 14.7817 45.4449 14.6529 45.2444C14.4009 44.8549 14.1825 44.4483 13.9752 44.0301C13.3144 42.6899 11.3598 42.203 10.1445 43.0049C8.80604 43.8869 8.43641 45.4907 9.14206 46.9226C12.5807 53.916 20.5557 56.5163 27.7299 56.4819C35.1337 56.4475 42.4534 54.4773 49.3644 51.9113C52.8926 50.5997 56.3593 49.122 59.8204 47.6271C60.6716 47.2605 61.5229 46.8882 62.3686 46.5216C62.755 46.3555 63.1414 46.1837 63.5279 46.0176C63.7183 45.9317 63.9143 45.8515 64.1047 45.7656C64.2895 45.6854 64.2615 45.6969 64.0151 45.8057C64.1719 45.7369 64.3231 45.674 64.4799 45.6052C66.1769 44.8778 67.8794 44.1561 69.5875 43.4688C73.0374 42.077 76.5489 40.754 80.1948 40.0036C80.6204 39.9177 81.046 39.8375 81.4716 39.7688C81.5389 39.7574 82.3901 39.6428 81.7517 39.723C81.9253 39.7001 82.0933 39.6829 82.2669 39.66C83.2638 39.5512 84.2663 39.4939 85.2743 39.4996C86.0472 39.4996 86.8201 39.5454 87.5873 39.6199C87.8169 39.6428 88.0466 39.6714 88.2762 39.6944C88.4106 39.7115 88.825 39.7287 88.2202 39.6829C88.6738 39.7173 89.1386 39.8318 89.5811 39.9177C91.474 40.2957 93.3278 40.8571 95.1199 41.573C95.2655 41.6303 95.4111 41.6876 95.5511 41.7506C95.6967 41.8078 95.8368 41.8708 95.9824 41.9338C95.6687 41.8021 95.6631 41.7964 95.9544 41.9281C96.38 42.1228 96.8056 42.3176 97.2313 42.5295C98.0769 42.9476 98.9114 43.3944 99.7347 43.864C101.387 44.8148 102.983 45.863 104.523 46.9856C104.909 47.2662 105.29 47.5526 105.671 47.839C105.862 47.9822 106.046 48.1311 106.237 48.2743C106.758 48.6752 105.951 48.0394 106.416 48.4175C107.211 49.0704 108.007 49.7234 108.779 50.3992C109.894 51.3672 111.664 51.602 112.739 50.3992C113.697 49.3282 113.932 47.3865 112.739 46.3498L112.75 46.3441Z" fill="white"/>
</svg>
