<svg width="124" height="83" viewBox="0 0 124 83" fill="none" xmlns="http://www.w3.org/2000/svg">
<path d="M123.095 32.0291C122.612 29.0821 121.799 26.1184 120.665 23.1321C119.532 20.1515 118.061 17.2719 116.243 14.4821C114.43 11.698 112.231 9.23376 109.632 7.09511C107.04 4.96209 104.015 3.24445 100.552 1.94779C97.0843 0.651135 93.1504 0 88.7451 0L53.761 0V0.971078C55.1864 0.971078 56.32 1.20122 57.1673 1.65027C58.0091 2.10495 58.6545 2.73926 59.109 3.54195C59.558 4.35587 59.8498 5.32694 59.9845 6.46082C60.1135 7.59469 60.1809 8.8745 60.1809 10.3003L60.1809 70.6593C60.1809 72.5398 60.0799 74.1732 59.8891 75.5709C59.6927 76.963 59.3391 78.1137 58.8172 79.0231C58.3009 79.9324 57.5209 80.6116 56.4883 81.0607C55.4501 81.5153 54.1201 81.7398 52.5039 81.7398V82.711L88.7451 82.711C93.1504 82.711 97.0899 82.0654 100.552 80.7688C104.015 79.4721 107.045 77.7208 109.632 75.5204C112.225 73.32 114.43 70.7885 116.243 67.9425C118.056 65.091 119.532 62.0767 120.665 58.8996C121.799 55.7281 122.612 52.5342 123.095 49.3291C123.578 46.1239 123.825 43.0591 123.825 40.1458C123.825 37.6872 123.578 34.9817 123.095 32.0291ZM110.076 55.599C109.2 60.5892 107.747 65.0068 105.704 68.8631C103.667 72.7138 100.945 75.8123 97.5388 78.1418C94.1381 80.4713 89.946 81.6444 84.9571 81.6444L72.6167 81.6444L72.6167 1.06651L83.5934 1.06651C88.6497 1.06651 92.9259 2.15548 96.4221 4.3278C99.9182 6.4945 102.786 9.39654 105.019 13.0227C107.259 16.6544 108.875 20.8138 109.879 25.5121C110.884 30.2104 111.383 35.0883 111.383 40.1402C111.383 45.4559 110.951 50.6089 110.07 55.5934L110.076 55.599Z" fill="white"/>
<path d="M111.389 40.1457C111.389 45.4614 110.957 50.6144 110.076 55.5989C109.201 60.5891 107.747 65.0067 105.705 68.863C103.667 72.7137 100.946 75.8122 97.5393 78.1417C94.1385 80.4712 89.9465 81.6443 84.9576 81.6443L72.6172 81.6443L72.6172 1.06641L83.5939 1.06641C88.6502 1.06641 92.9264 2.15537 96.4226 4.32769C99.9187 6.4944 102.786 9.39643 105.02 13.0226C107.259 16.6543 108.875 20.8137 109.88 25.512C110.884 30.2103 111.384 35.0882 111.384 40.1401L111.389 40.1457Z" fill="white"/>
<path d="M11.3548 52.7446C17.6258 52.7446 22.7095 47.4969 22.7095 41.0235C22.7095 34.5502 17.6258 29.3025 11.3548 29.3025C5.0837 29.3025 0 34.5502 0 41.0235C0 47.4969 5.0837 52.7446 11.3548 52.7446Z" fill="white"/>
<path d="M112.75 46.2694C107.329 41.5441 101.28 37.3802 94.4256 35.1922C91.1101 34.1326 87.565 33.577 84.0872 33.7202C80.1893 33.8806 76.3642 34.8314 72.6903 36.1201C69.246 37.3286 65.8858 38.7662 62.5311 40.2096C60.683 41.0057 58.8404 41.8076 56.9923 42.6037C57.4627 42.4032 57.0539 42.5751 56.9643 42.6152C56.7347 42.7125 56.4994 42.8156 56.2698 42.913C55.8834 43.0791 55.497 43.2452 55.1105 43.4056C54.2593 43.7664 53.408 44.1215 52.5511 44.4766C49.1517 45.8684 45.713 47.1743 42.2015 48.2282C40.5382 48.7265 38.8581 49.1733 37.1612 49.5455C36.3155 49.7346 35.4642 49.9007 34.6074 50.0496C34.1593 50.1298 33.7113 50.1985 33.2632 50.2672C32.7144 50.3531 33.1624 50.2844 33.2688 50.2672C32.9384 50.3131 32.6136 50.3531 32.2832 50.3875C30.2558 50.6166 28.2117 50.7369 26.1787 50.6453C25.6635 50.6223 25.1482 50.588 24.6386 50.5364C24.5658 50.5307 23.7201 50.4219 24.3642 50.5135C24.1121 50.4791 23.8545 50.4391 23.6025 50.3932C22.5944 50.21 21.5919 49.9637 20.6231 49.6257C20.4103 49.5513 20.1918 49.4711 19.9846 49.3909C19.8558 49.3394 19.2062 49.1618 19.867 49.3508C19.475 49.242 19.0774 48.9728 18.7189 48.7781C18.3605 48.5833 17.9797 48.3485 17.6212 48.1137C17.442 47.9934 17.2684 47.8731 17.0948 47.7471C16.854 47.5753 16.5908 47.4378 16.9828 47.6726C16.3051 47.266 15.6667 46.4813 15.1626 45.8799C15.073 45.7711 14.5802 45.29 15.073 45.7883C14.905 45.6222 14.7818 45.3701 14.653 45.1697C14.401 44.7802 14.1826 44.3735 13.9754 43.9554C13.3145 42.6152 11.36 42.1283 10.1447 42.9302C8.80616 43.8122 8.43653 45.416 9.14218 46.8479C12.5808 53.8412 20.5559 56.4416 27.73 56.4072C35.1338 56.3728 42.4536 54.4025 49.3645 51.8366C52.8928 50.525 56.3594 49.0473 59.8205 47.5524C60.6718 47.1858 61.523 46.8135 62.3687 46.4469C62.7551 46.2808 63.1416 46.109 63.528 45.9429C63.7184 45.857 63.9144 45.7768 64.1048 45.6909C64.2896 45.6107 64.2616 45.6221 64.0152 45.731C64.172 45.6622 64.3233 45.5993 64.4801 45.5305C66.177 44.8031 67.8795 44.0814 69.5877 43.3941C73.0375 42.0023 76.549 40.6793 80.1949 39.9289C80.6205 39.843 81.0461 39.7628 81.4718 39.6941C81.539 39.6827 82.3902 39.5681 81.7518 39.6483C81.9254 39.6254 82.0934 39.6082 82.267 39.5853C83.2639 39.4765 84.2664 39.4192 85.2745 39.4249C86.0473 39.4249 86.8202 39.4707 87.5874 39.5452C87.8171 39.5681 88.0467 39.5967 88.2763 39.6196C88.4107 39.6368 88.8251 39.654 88.2203 39.6082C88.6739 39.6425 89.1388 39.7571 89.5812 39.843C91.4741 40.221 93.3279 40.7823 95.12 41.4983C95.2656 41.5556 95.4113 41.6128 95.5513 41.6758C95.6969 41.7331 95.8369 41.7961 95.9825 41.8591C95.6689 41.7274 95.6633 41.7217 95.9545 41.8534C96.3801 42.0481 96.8058 42.2429 97.2314 42.4548C98.0771 42.8729 98.9115 43.3197 99.7348 43.7893C101.387 44.7401 102.983 45.7882 104.523 46.9109C104.91 47.1915 105.29 47.4779 105.671 47.7643C105.862 47.9075 106.046 48.0564 106.237 48.1996C106.758 48.6005 105.951 47.9647 106.416 48.3428C107.211 48.9957 108.007 49.6487 108.779 50.3245C109.894 51.2925 111.664 51.5273 112.739 50.3245C113.697 49.2535 113.932 47.3118 112.739 46.2751L112.75 46.2694Z" fill="white"/>
</svg>
